<?xml version="1.0" encoding="UTF-8" standalone="no"?>
<svg xmlns="http://www.w3.org/2000/svg" xmlns:svg="http://www.w3.org/2000/svg" width="600" height="200" viewBox="0 0 600 200" version="1.1" id="svg5" xml:space="preserve"><defs id="defs2"/><g id="layer1" transform="matrix(0.59481621,0,0,0.59481621,-8.7838367,30.884199)"><path style="fill:#000000;stroke:#000000;stroke-width:0.418065;stroke-linecap:square;stroke-opacity:1.0" id="path354" d="m 72.842489,163.35728 c -0.273402,11.44339 -13.20529,20.91589 -28.869277,20.76608 -15.663986,-0.14981 -28.215523,-9.52227 -28.078824,-20.96696 0.136702,-11.44469 12.910216,-20.65569 28.5754,-20.60575 15.665183,0.0499 28.328192,9.34202 28.328191,20.78715 H 44.345642 Z" transform="matrix(0.97033658,0.24175798,0.04157781,0.99913527,0,0)"/><path id="rect464" style="fill:#000000;stroke:#000000;stroke-width:0.377953;stroke-linecap:square;stroke-opacity:1.0" transform="rotate(17.857527)" d="m 118.35244,10.238431 10.62197,17.510268 1.03404,124.630141 -10.62203,4.01239 z"/><path style="fill:#000000;stroke:#000000;stroke-width:0.418065;stroke-linecap:square;stroke-opacity:1.0" id="path354-6" d="m 181.3453,-63.145775 c -0.2734,11.443388 -13.15645,20.572591 -28.82044,20.422776 -15.66399,-0.149814 -28.21552,-9.522275 -28.07882,-20.966967 0.1367,-11.444693 12.91022,-20.655685 28.5754,-20.605746 15.66518,0.04994 28.3124,9.710476 28.3124,21.155605 l -28.43655,-0.368457 z" transform="matrix(0.97033658,-0.24175798,0.04157781,-0.99913527,0,0)"/><path id="rect464-9" style="fill:#000000;stroke:#000000;stroke-width:0.377953;stroke-linecap:square;stroke-opacity:1.0" d="m 142.98209,132.96253 29.74068,62.5761 -39.90519,-148.357085 -14.26482,-9.590571 z"/><path d="m 865.86047,212.69468 h 13.57495 v 3.2052 h -13.57495 z m 0.33938,11.72725 h 15.38494 v 3.28062 h -19.15576 v -26.39574 h 18.62785 v 3.28061 h -14.85703 z m 27.38794,3.50686 q -2.48874,0 -4.75124,-0.67874 -2.22478,-0.67875 -3.50686,-1.65916 l 1.50833,-2.86583 q 1.28208,0.86729 3.16749,1.47062 1.88541,0.60333 3.84623,0.60333 2.52645,0 3.61999,-0.71645 1.13125,-0.71646 1.13125,-1.99854 0,-0.9427 -0.67875,-1.47062 -0.67875,-0.52791 -1.80999,-0.79187 -1.09354,-0.26396 -2.45104,-0.4525 -1.35749,-0.22625 -2.71499,-0.52791 -1.35749,-0.33938 -2.48874,-0.905 -1.13124,-0.60333 -1.80999,-1.62145 -0.67875,-1.05583 -0.67875,-2.79041 0,-1.80999 1.01812,-3.16749 1.01812,-1.35749 2.86582,-2.07395 1.88541,-0.75416 4.44957,-0.75416 1.96083,0 3.95936,0.49021 2.03625,0.45249 3.31832,1.31978 l -1.54603,2.86583 q -1.3575,-0.905 -2.82812,-1.24437 -1.47062,-0.33938 -2.94124,-0.33938 -2.37561,0 -3.54457,0.79187 -1.16895,0.75417 -1.16895,1.96083 0,1.01812 0.67875,1.58374 0.71645,0.52792 1.80999,0.82958 1.13125,0.30167 2.48874,0.52792 1.3575,0.18854 2.71499,0.52791 1.3575,0.30167 2.45103,0.86729 1.13125,0.56563 1.81,1.58375 0.71645,1.01812 0.71645,2.71499 0,1.80999 -1.05583,3.12978 -1.05583,1.31978 -2.97894,2.07395 -1.92312,0.71645 -4.6004,0.71645 z m 20.97752,0 q -3.01666,0 -4.67582,-1.62145 -1.65916,-1.62145 -1.65916,-4.63811 v -18.32618 h 3.61999 v 18.17535 q 0,1.62145 0.79187,2.48874 0.82958,0.86729 2.33791,0.86729 1.69687,0 2.82811,-0.9427 l 1.13125,2.60186 q -0.82958,0.71646 -1.99854,1.05583 -1.13124,0.33937 -2.37561,0.33937 z m -9.72872,-17.23264 v -2.97895 h 12.74537 v 2.97895 z m 20.67587,17.23264 q -1.05583,0 -1.80999,-0.71645 -0.75417,-0.75417 -0.75417,-1.88541 0,-1.13125 0.75417,-1.8477 0.75416,-0.71646 1.80999,-0.71646 1.01812,0 1.73458,0.71646 0.75416,0.71645 0.75416,1.8477 0,1.13124 -0.75416,1.88541 -0.71646,0.71645 -1.73458,0.71645 z m 22.57301,-0.22624 v -24.88742 l 1.62146,1.77229 h -7.57935 v -3.28061 h 9.69101 v 26.39574 z m 19.01675,-26.69741 q 3.58228,0 6.03331,1.54604 2.48875,1.54603 3.77082,4.48727 1.28208,2.90353 1.28208,7.12685 0,4.48728 -1.58374,7.57935 -1.58375,3.09207 -4.37415,4.67582 -2.79041,1.58374 -6.52352,1.58374 -1.8477,0 -3.58228,-0.37708 -1.69687,-0.37708 -2.97895,-1.16896 l 1.43291,-2.94123 q 1.05583,0.67874 2.33791,0.98041 1.31979,0.26396 2.7527,0.26396 3.99707,0 6.37269,-2.48875 2.37561,-2.52644 2.37561,-7.46622 0,-0.79187 -0.0754,-1.88541 -0.0754,-1.09354 -0.33938,-2.14937 l 1.24437,1.28208 q -0.52791,1.73458 -1.77228,2.94124 -1.20666,1.16896 -2.94124,1.77229 -1.69687,0.56562 -3.73311,0.56562 -2.60187,0 -4.63811,-0.98041 -2.03624,-0.98042 -3.2052,-2.7527 -1.16895,-1.80999 -1.16895,-4.26103 0,-2.56416 1.20666,-4.41186 1.24437,-1.88541 3.35603,-2.90353 2.14937,-1.01812 4.75123,-1.01812 z m 0.15084,3.05436 q -1.69687,0 -3.01666,0.64104 -1.31979,0.64104 -2.07395,1.77229 -0.71646,1.13125 -0.71646,2.71499 0,2.33791 1.62146,3.73311 1.62145,1.3575 4.37415,1.3575 1.80999,0 3.16748,-0.67875 1.39521,-0.67875 2.14937,-1.8477 0.79187,-1.16896 0.79187,-2.60187 0,-1.3952 -0.71645,-2.52645 -0.71646,-1.13124 -2.11166,-1.8477 -1.3952,-0.71646 -3.46915,-0.71646 z m 25.80421,23.94471 q -3.2052,0 -5.54311,-0.9427 -2.33791,-0.94271 -3.61999,-2.67729 -1.28207,-1.77228 -1.28207,-4.1479 0,-2.33791 1.20666,-3.95936 1.24437,-1.65916 3.58228,-2.48874 2.3379,-0.86729 5.65623,-0.86729 3.31832,0 5.65623,0.86729 2.3756,0.82958 3.62,2.48874 1.2444,1.65916 1.2444,3.95936 0,2.37562 -1.2821,4.1479 -1.2821,1.73458 -3.65772,2.67729 -2.37562,0.9427 -5.58081,0.9427 z m 0,-3.05436 q 3.16748,0 4.93977,-1.28208 1.80999,-1.31979 1.80999,-3.54457 0,-2.18708 -1.80999,-3.43145 -1.77229,-1.28208 -4.93977,-1.28208 -3.12978,0 -4.90207,1.28208 -1.77229,1.24437 -1.77229,3.43145 0,2.22478 1.77229,3.54457 1.77229,1.28208 4.90207,1.28208 z m 0,-9.99268 q -3.01666,0 -5.12832,-0.79187 -2.11166,-0.82958 -3.2429,-2.33791 -1.13125,-1.54603 -1.13125,-3.65769 0,-2.22479 1.16895,-3.80853 1.20667,-1.62145 3.35603,-2.48874 2.14937,-0.86729 4.97749,-0.86729 2.86582,0 5.01519,0.86729 2.14934,0.86729 3.35604,2.48874 1.2066,1.58374 1.2066,3.80853 0,2.11166 -1.1312,3.65769 -1.1312,1.50833 -3.28061,2.33791 -2.14937,0.79187 -5.16602,0.79187 z m 0,-2.41332 q 2.75269,0 4.29873,-1.13125 1.58374,-1.13124 1.58374,-3.09207 0,-1.99853 -1.62145,-3.12978 -1.62145,-1.13125 -4.26102,-1.13125 -2.63958,0 -4.22332,1.13125 -1.54604,1.13125 -1.54604,3.12978 0,1.96083 1.50833,3.09207 1.54604,1.13125 4.26103,1.13125 z m 19.39373,15.1587 v -24.88742 l 1.6215,1.77229 h -7.5794 v -3.28061 h 9.691 v 26.39574 z" id="text1" style="font-weight:500;font-size:37.7082px;font-family:Montserrat;-inkscape-font-specification:'Montserrat, Medium';letter-spacing:0.954489px;fill:#000000;stroke-width:10.0209" aria-label="Est. 1981"/><path d="m 178.37229,131.03461 v -15.04105 l 1.57469,4.34399 -16.50714,-27.312804 h 7.54768 l 13.24915,21.991424 h -4.23539 l 13.35776,-21.991424 h 6.95037 l -16.50714,27.312804 1.62899,-4.34399 v 15.04105 z m 26.00956,0 V 93.024746 h 7.05897 v 32.036884 h 19.87373 v 5.97298 z m 39.04161,-22.20862 h 18.89633 v 5.81008 h -18.89633 z m 0.54299,16.28994 h 21.44843 v 5.91868 h -28.5074 V 93.024746 h 27.7472 v 5.918679 h -20.68823 z m 41.10495,6.46167 q -4.45258,0 -8.52506,-1.24889 -4.07249,-1.3032 -6.46168,-3.31229 l 2.44349,-5.48428 q 2.28059,1.7919 5.64718,2.98649 3.36659,1.1946 6.89607,1.1946 2.98649,0 4.83269,-0.6516 1.84619,-0.6516 2.71499,-1.73759 0.86879,-1.1403 0.86879,-2.5521 0,-1.73759 -1.24889,-2.76929 -1.2489,-1.08599 -3.25799,-1.68329 -1.95479,-0.6516 -4.39828,-1.19459 -2.3892,-0.543 -4.83269,-1.2489 -2.38919,-0.7602 -4.39828,-1.90049 -1.95479,-1.1946 -3.20369,-3.14939 -1.24889,-1.95479 -1.24889,-4.99558 0,-3.09509 1.62899,-5.647183 1.68329,-2.60639 5.04988,-4.126784 3.42089,-1.574695 8.63367,-1.574695 3.42089,0 6.78747,0.868797 3.36659,0.868797 5.86438,2.497791 l -2.22629,5.484284 q -2.55209,-1.520399 -5.26708,-2.226296 -2.71499,-0.760197 -5.21278,-0.760197 -2.93219,0 -4.77838,0.705897 -1.7919,0.705898 -2.66069,1.846196 -0.8145,1.14029 -0.8145,2.60639 0,1.73759 1.1946,2.82359 1.24889,1.03169 3.20368,1.62899 2.0091,0.5973 4.45259,1.1946 2.44349,0.543 4.83268,1.24889 2.44349,0.7059 4.39828,1.8462 2.0091,1.14029 3.20369,3.09508 1.2489,1.9548 1.2489,4.94129 0,3.04079 -1.6833,5.64718 -1.62899,2.55209 -5.04988,4.12678 -3.42089,1.52039 -8.63367,1.52039 z m 22.37151,-0.54299 V 93.024746 h 17.81034 q 6.84177,0 10.42556,2.71499 3.58378,2.660691 3.58378,7.167574 0,3.04079 -1.41179,5.21278 -1.4118,2.11769 -3.80099,3.31229 -2.33489,1.14029 -5.10418,1.14029 l 0.9774,-1.95479 q 3.20369,0 5.75578,1.1946 2.55209,1.14029 4.01818,3.36659 1.5204,2.22629 1.5204,5.53857 0,4.88699 -3.74669,7.60198 -3.74669,2.71499 -11.13146,2.71499 z m 7.05898,-5.53858 h 11.40295 q 3.96389,0 6.08158,-1.3032 2.11769,-1.30319 2.11769,-4.18108 0,-2.82359 -2.11769,-4.12679 -2.11769,-1.35749 -6.08158,-1.35749 h -11.94595 v -5.48428 h 10.53416 q 3.69239,0 5.64718,-1.3032 2.00909,-1.30319 2.00909,-3.90958 0,-2.66069 -2.00909,-3.963889 -1.95479,-1.303195 -5.64718,-1.303195 h -9.99116 z m 50.60739,6.08157 q -7.81917,0 -12.27176,-4.39828 -4.39828,-4.39828 -4.39828,-12.70615 V 93.024746 h 7.05897 v 21.176924 q 0,5.86438 2.4978,8.52507 2.55209,2.66069 7.16757,2.66069 4.61548,0 7.11327,-2.66069 2.49779,-2.66069 2.49779,-8.52507 V 93.024746 h 6.95038 v 21.448424 q 0,8.30787 -4.45259,12.70615 -4.39828,4.39828 -12.16315,4.39828 z m 26.49827,-0.54299 V 93.024746 h 15.63835 q 5.04988,0 8.63366,1.628994 3.63809,1.628994 5.59288,4.669783 1.9548,3.040787 1.9548,7.221877 0,4.18108 -1.9548,7.22187 -1.95479,2.98649 -5.59288,4.61548 -3.58378,1.5747 -8.63366,1.5747 h -11.72876 l 3.14939,-3.20369 v 14.28085 z m 24.86931,0 -9.61106,-13.79215 h 7.54767 l 9.66536,13.79215 z m -17.81033,-13.52065 -3.14939,-3.36659 h 11.40296 q 4.66978,0 7.00467,-2.00909 2.38919,-2.0091 2.38919,-5.59288 0,-3.63809 -2.38919,-5.59288 -2.33489,-1.954796 -7.00467,-1.954796 h -11.40296 l 3.14939,-3.475187 z m 41.4308,13.52065 v -15.04105 l 1.57469,4.34399 -16.50714,-27.312804 h 7.54767 l 13.24916,21.991424 h -4.23539 l 13.35775,-21.991424 h 6.95038 l -16.50714,27.312804 1.62899,-4.34399 v 15.04105 z m 41.53925,0 V 93.024746 h 7.05897 v 32.036884 h 19.87373 v 5.97298 z m 48.32687,0.54299 q -7.81917,0 -12.27175,-4.39828 -4.39829,-4.39828 -4.39829,-12.70615 V 93.024746 h 7.05898 v 21.176924 q 0,5.86438 2.49779,8.52507 2.55209,2.66069 7.16757,2.66069 4.61548,0 7.11327,-2.66069 2.4978,-2.66069 2.4978,-8.52507 V 93.024746 h 6.95037 v 21.448424 q 0,8.30787 -4.45258,12.70615 -4.39829,4.39828 -12.16316,4.39828 z m 26.49826,-0.54299 V 93.024746 h 5.81008 l 23.83761,29.267594 h -2.87789 V 93.024746 h 7.00468 v 38.009864 h -5.81008 l -23.83762,-29.2676 h 2.87789 v 29.2676 z m 61.57595,0.54299 q -4.34398,0 -8.09067,-1.41179 -3.69238,-1.46609 -6.46167,-4.07248 -2.71499,-2.6607 -4.23539,-6.24448 -1.52039,-3.58379 -1.52039,-7.81917 0,-4.23539 1.52039,-7.81917 1.5204,-3.58379 4.28969,-6.190182 2.76929,-2.66069 6.46167,-4.072485 3.69239,-1.466095 8.09067,-1.466095 4.66979,0 8.52507,1.628994 3.85529,1.574695 6.51598,4.724083 l -4.56118,4.289685 q -2.0634,-2.22629 -4.61549,-3.312289 -2.55209,-1.140295 -5.53858,-1.140295 -2.98649,0 -5.48428,0.977396 -2.44349,0.977398 -4.28968,2.769288 -1.79189,1.7919 -2.82359,4.23539 -0.9774,2.44349 -0.9774,5.37568 0,2.93219 0.9774,5.37568 1.0317,2.44349 2.82359,4.23538 1.84619,1.79189 4.28968,2.76929 2.49779,0.9774 5.48428,0.9774 2.98649,0 5.53858,-1.086 2.55209,-1.14029 4.61549,-3.42089 l 4.56118,4.34399 q -2.66069,3.09509 -6.51598,4.72408 -3.85528,1.62899 -8.57937,1.62899 z m 48.59829,-38.552854 h 7.05898 v 38.009864 h -7.05898 z m -19.65653,38.009864 h -7.05897 V 93.024746 h 7.05897 z m 20.19953,-16.28994 h -20.79682 v -6.02728 h 20.79682 z m 24.43489,16.28994 V 98.997724 h -12.59755 v -5.972978 h 32.25408 v 5.972978 h -12.59756 v 32.036886 z m 24.97784,0 V 93.024746 h 7.05898 v 38.009864 z m 17.32166,0 V 93.024746 h 5.81008 l 16.61574,27.747194 h -3.04079 l 16.34424,-27.747194 h 5.81008 l 0.0543,38.009864 h -6.67888 l -0.0543,-27.53 h 1.4118 l -13.90075,23.18601 h -3.14939 l -14.11795,-23.18601 h 1.62899 v 27.53 z m 58.3723,-22.20862 h 18.89633 v 5.81008 h -18.89633 z m 0.543,16.28994 h 21.44842 v 5.91868 h -28.5074 V 93.024746 h 27.7472 v 5.918679 h -20.68822 z m 44.30858,5.91868 V 93.024746 h 5.81008 l 16.61573,27.747194 h -3.04078 l 16.34424,-27.747194 h 5.81007 l 0.0543,38.009864 h -6.67887 l -0.0543,-27.53 h 1.41179 l -13.90075,23.18601 h -3.14938 L 842.2414,103.50461 h 1.62899 v 27.53 z m 68.20056,0.54299 q -7.81917,0 -12.27176,-4.39828 -4.39828,-4.39828 -4.39828,-12.70615 V 93.024746 h 7.05898 v 21.176924 q 0,5.86438 2.49779,8.52507 2.55209,2.66069 7.16757,2.66069 4.61548,0 7.11327,-2.66069 2.49779,-2.66069 2.49779,-8.52507 V 93.024746 h 6.95038 v 21.448424 q 0,8.30787 -4.45258,12.70615 -4.39829,4.39828 -12.16316,4.39828 z m 38.28128,0 q -4.45258,0 -8.52506,-1.24889 -4.07249,-1.3032 -6.46168,-3.31229 l 2.44349,-5.48428 q 2.28059,1.7919 5.64718,2.98649 3.36659,1.1946 6.89607,1.1946 2.98649,0 4.83269,-0.6516 1.84619,-0.6516 2.71499,-1.73759 0.86879,-1.1403 0.86879,-2.5521 0,-1.73759 -1.24889,-2.76929 -1.2489,-1.08599 -3.25799,-1.68329 -1.95479,-0.6516 -4.39828,-1.19459 -2.38919,-0.543 -4.83269,-1.2489 -2.38919,-0.7602 -4.39828,-1.90049 -1.95479,-1.1946 -3.20369,-3.14939 -1.24889,-1.95479 -1.24889,-4.99558 0,-3.09509 1.62899,-5.647183 1.68329,-2.60639 5.04988,-4.126784 3.42089,-1.574695 8.63367,-1.574695 3.42089,0 6.78748,0.868797 3.36658,0.868797 5.86437,2.497791 l -2.22629,5.484284 q -2.55209,-1.520399 -5.26708,-2.226296 -2.71499,-0.760197 -5.21278,-0.760197 -2.93219,0 -4.77838,0.705897 -1.7919,0.705898 -2.66069,1.846196 -0.8145,1.14029 -0.8145,2.60639 0,1.73759 1.1946,2.82359 1.24889,1.03169 3.20369,1.62899 2.00909,0.5973 4.45258,1.1946 2.44349,0.543 4.83268,1.24889 2.44349,0.7059 4.39828,1.8462 2.0091,1.14029 3.20369,3.09508 1.2489,1.9548 1.2489,4.94129 0,3.04079 -1.6833,5.64718 -1.62899,2.55209 -5.04988,4.12678 -3.42088,1.52039 -8.63367,1.52039 z m 22.37155,-0.54299 V 93.024746 h 7.05897 v 38.009864 z m 34.91479,0.54299 q -4.34398,0 -8.09067,-1.41179 -3.69239,-1.46609 -6.46168,-4.07248 -2.71499,-2.6607 -4.23538,-6.24448 -1.52039,-3.58379 -1.52039,-7.81917 0,-4.23539 1.52039,-7.81917 1.52039,-3.58379 4.28968,-6.190182 2.76929,-2.66069 6.46168,-4.072485 3.69239,-1.466095 8.09067,-1.466095 4.6698,0 8.5251,1.628994 3.8553,1.574695 6.5159,4.724083 l -4.5611,4.289685 q -2.0634,-2.22629 -4.6155,-3.312289 -2.5521,-1.140295 -5.5386,-1.140295 -2.98649,0 -5.48428,0.977396 -2.44349,0.977398 -4.28968,2.769288 -1.7919,1.7919 -2.82359,4.23539 -0.9774,2.44349 -0.9774,5.37568 0,2.93219 0.9774,5.37568 1.03169,2.44349 2.82359,4.23538 1.84619,1.79189 4.28968,2.76929 2.49779,0.9774 5.48428,0.9774 2.9865,0 5.5386,-1.086 2.5521,-1.14029 4.6155,-3.42089 l 4.5611,4.34399 q -2.6606,3.09509 -6.5159,4.72408 -3.8553,1.62899 -8.5794,1.62899 z" id="text723" style="font-weight:600;font-size:54.2998px;font-family:Montserrat;-inkscape-font-specification:'Montserrat, Semi-Bold';fill:#000000;stroke:#000000;stroke-width:0.366478;stroke-linecap:square;stroke-opacity:1.0" aria-label="YLESBURY LUNCHTIME MUSIC"/><path id="path654" style="fill:#000000;stroke:#000000;stroke-width:0.377953;stroke-linecap:square;stroke-opacity:1.0" transform="matrix(1.6533535,0,0,3.2328057,-50.771241,-274.44188)" d="M 134.99421,145.24528 94.91794,125.8174 h 22.2548 z"/><path style="fill:none;stroke:#000000;stroke-width:1.93928;stroke-linecap:square;stroke-dasharray:none;stroke-opacity:1.0" d="M 167.73071,65.886768 C 221.46087,46.471049 279.4808,39.029175 336.37173,44.256177 c 56.5116,5.19215 111.90094,22.671371 168.64101,21.630591 56.73231,-1.040637 111.90873,-20.589955 168.64104,-21.630591 56.74007,-1.040778 112.12941,16.438446 168.64101,21.630591 56.8909,5.226994 114.91079,-2.21488 168.64091,-21.630591" id="path840"/><path style="fill:none;stroke:#000000;stroke-width:1.93928;stroke-linecap:square;stroke-dasharray:none;stroke-opacity:1.0" d="m 183.51322,172.14308 c 50.27831,-15.54948 103.63677,-21.06868 156.03332,-16.1395 56.49633,5.31487 111.90606,22.60846 168.64164,21.53288 56.72681,-1.07541 111.91392,-20.50783 168.64166,-21.53288 56.73555,-1.02519 112.13235,16.36816 168.64164,21.53288 56.88515,5.19907 114.88802,-2.20698 168.64172,-21.53288" id="path840-4"/></g></svg>