<?xml version="1.0" encoding="UTF-8" standalone="no"?>
<svg
   version="1.1"
   id="Layer_1"
   x="0px"
   y="0px"
   viewBox="0 0 597.9 280.6"
   xml:space="preserve"
   sodipodi:docname="berkhamsted-music.svg"
   width="597.90002"
   height="280.60001"
   inkscape:version="1.4 (86a8ad7, 2024-10-11)"
   xmlns:inkscape="http://www.inkscape.org/namespaces/inkscape"
   xmlns:sodipodi="http://sodipodi.sourceforge.net/DTD/sodipodi-0.dtd"
   xmlns:xlink="http://www.w3.org/1999/xlink"
   xmlns="http://www.w3.org/2000/svg"
   xmlns:svg="http://www.w3.org/2000/svg"><defs
   id="defs16"><color-profile
     name="U.S.-Sheetfed-Coated-v2"
     xlink:href="../../../../../../../Windows/system32/spool/drivers/color/USSheetfedCoated.icc"
     id="color-profile1" /></defs><sodipodi:namedview
   id="namedview16"
   pagecolor="#505050"
   bordercolor="#eeeeee"
   borderopacity="1"
   inkscape:showpageshadow="0"
   inkscape:pageopacity="0"
   inkscape:pagecheckerboard="0"
   inkscape:deskcolor="#505050"
   inkscape:zoom="1.3272511"
   inkscape:cx="387.6433"
   inkscape:cy="207.57188"
   inkscape:window-width="1920"
   inkscape:window-height="1111"
   inkscape:window-x="-9"
   inkscape:window-y="-9"
   inkscape:window-maximized="1"
   inkscape:current-layer="Layer_1" />
<style
   type="text/css"
   id="style1">
	.st0{fill:#A2BD1A;}
	.st1{fill:#FFFFFF;}
</style>
<rect
   style="opacity:1;fill:#0a1a46;fill-opacity:1;stroke:#000000;stroke-width:0.889719;stroke-linecap:square;paint-order:stroke fill markers"
   id="rect16"
   width="597.1897"
   height="285.04282"
   x="0.48237351"
   y="-1.3836752" /><g
   id="g11"
   transform="translate(0,72)">
	<path
   class="st0"
   d="m 51.4,47.9 c 0,8.2 -2,15.3 -5.9,21.4 -4.4,6.7 -10.1,10.1 -17.2,10.1 -2.3,0 -4.7,-0.7 -7.2,-2 -2.5,-1.3 -4.6,-3.2 -6.4,-5.5 L 12.7,69.4 8.3,78 H 5.7 V 2.4 H 0 V 0 h 16 v 27.8 c 1.9,-2.9 4.1,-5.1 6.4,-6.6 2.3,-1.5 5.1,-2.2 8.4,-2.2 6.4,0 11.6,3.1 15.4,9.2 3.5,5.6 5.2,12.1 5.2,19.7 z m -11.2,1.6 c 0,-7.1 -0.8,-13.1 -2.4,-17.8 -2,-6.2 -5.2,-9.2 -9.4,-9.2 -4.9,0 -8.4,2.9 -10.4,8.8 -1.4,4.1 -2.1,9.9 -2.1,17.4 0,8.3 0.5,14.3 1.6,18.2 1.7,6.4 5.2,9.6 10.2,9.6 5.1,0 8.6,-3.1 10.5,-9.2 1.4,-4.2 2,-10.1 2,-17.8 z"
   id="path1" />
	<path
   class="st0"
   d="m 102.2,56.5 -0.1,1.8 c 0,5.6 -1.9,10.6 -5.7,14.8 -3.8,4.2 -8.4,6.3 -14,6.3 -7,0 -12.9,-2.9 -17.5,-8.8 -4.5,-5.8 -6.9,-13.1 -6.9,-22 0,-8.2 2.3,-15.2 6.8,-21.1 4.5,-5.9 10.1,-8.8 16.8,-8.8 5.9,0 10.8,2.3 14.9,7 3.8,4.4 5.7,9.5 5.7,15.5 0,1 0,1.7 0,2.2 h -33 v 6.7 c 0,8 0.9,14.1 2.6,18.3 2.3,5.5 6.1,8.2 11.5,8.2 4.8,0 8.8,-2.1 12.1,-6.3 2.9,-3.8 4.4,-7.9 4.4,-12.3 v -1.6 h 2.4 z M 90.9,41 V 34.7 C 90.9,31 90.2,27.9 88.7,25.4 86.9,22.5 84.4,21 81.2,21 c -2.7,0 -5.1,1.3 -7.1,3.9 -2,2.6 -3.3,5.5 -3.8,8.9 L 69.1,41 Z"
   id="path2" />
	<path
   class="st0"
   d="m 144.7,43 h -2.5 l -3.1,-9.6 c -1.1,-3.5 -2,-5.8 -2.6,-7 -1,-1.8 -2,-2.6 -3.1,-2.6 -0.3,0 -0.9,0.2 -1.6,0.5 -2.6,1.5 -4.6,3.9 -6,7.3 -1.4,3.4 -2.1,9.2 -2.1,17.4 0,1.9 0,3.4 0,4.3 v 22.2 h 7.8 V 78 h -24 v -2.4 h 5.9 V 23.1 h -5.9 v -2.4 h 15.2 v 11.9 c 0.4,-2.7 1.9,-5.3 4.4,-7.8 3.1,-3.1 6.6,-4.6 10.6,-4.6 2.3,0 4.7,0.7 7.3,2 V 43 Z"
   id="path3" />
	<path
   class="st0"
   d="m 202.9,78 h -15 L 167.2,48.1 v 27.5 h 7.7 V 78 h -23.5 v -2.4 h 5.5 V 2.4 h -5.5 V 0 h 15.8 V 47.1 L 188.9,23 h -7.8 v -2.6 h 16 V 23 l -4.6,-0.1 -17.2,19.4 22.9,33.3 h 4.6 V 78 Z"
   id="path4" />
	<path
   class="st0"
   d="m 260.3,78 h -22.6 v -2.4 h 7 V 37.8 c 0,-5.2 -0.3,-8.6 -0.8,-10.1 -1.1,-3.1 -3.3,-4.6 -6.7,-4.6 -4.9,0 -8.4,3.1 -10.4,9.3 -1.4,4.3 -2.1,10.4 -2.1,18.2 v 25 h 7.5 V 78 h -23.1 v -2.4 h 5.5 V 2.4 h -5.9 V 0 h 16 v 30.1 c 0.8,-2.6 2.7,-5 5.6,-7.2 2.9,-2.2 6,-3.2 9,-3.2 5.6,0 9.6,1.4 11.8,4.1 2.2,2.7 3.4,7.2 3.4,13.4 v 38.4 h 5.8 z"
   id="path5" />
	<path
   class="st0"
   d="M 316.2,78 H 300.1 V 67.8 c -1.2,3.7 -3.6,6.6 -7.1,8.6 -3.5,2 -7.4,3 -11.7,3 -4.1,0 -7.7,-1.5 -10.7,-4.5 -3,-3 -4.5,-6.6 -4.5,-10.7 0,-6.8 3.1,-11.5 9.4,-14 1.8,-0.7 5.3,-1.8 10.7,-3.2 2.1,-0.5 4.1,-1 6.1,-1.5 1.9,-0.5 4.1,-1.3 6.5,-2.4 l 2,-0.9 v -8.5 c 0,-3.7 -0.6,-6.6 -1.7,-8.6 -1.6,-2.7 -4.2,-4.1 -7.9,-4.1 -1,0 -1.6,0 -2,0 -3.2,0 -5.7,1.3 -7.7,4 -1.1,1.4 -2.4,4.3 -4.1,8.5 l -2.9,7.4 h -2.4 V 23.1 c 1.7,-0.7 3.3,-1.3 5,-1.9 1.7,-0.6 3.3,-1 4.9,-1.3 1.6,-0.3 3.2,-0.5 4.8,-0.7 1.6,-0.2 3.3,-0.3 4.9,-0.3 7.8,0 13.1,2.1 16,6.2 1.9,2.8 2.9,7.3 2.9,13.6 v 36.8 h 5.5 V 78 Z M 300.8,50.5 v -5.4 l -5.3,2 c -4.8,1.8 -9.7,3.5 -14.5,5.1 -3,1.8 -4.5,5.4 -4.5,10.9 0,3.7 0.8,6.8 2.4,9.2 1.6,2.5 4.1,3.7 7.3,3.7 3.9,0 7.2,-1.8 9.9,-5.4 2.4,-3.2 3.8,-6.9 4.4,-11.2 0.2,-1.3 0.3,-2.9 0.3,-4.6 0,-1.7 0,-3.1 0,-4.3 z"
   id="path6" />
	<path
   class="st0"
   d="M 403.8,78 H 381.4 V 75.6 H 388 V 35.4 c 0,-4.5 -0.6,-7.7 -1.7,-9.5 -1.1,-1.8 -3.5,-2.7 -6.9,-2.7 -3.5,0 -6.2,1.9 -8.2,5.7 -2,3.8 -2.9,8.6 -2.9,14.4 v 32.4 h 6.1 V 78 H 352 v -2.4 h 6.5 V 43.9 c 0,-7.5 -0.1,-11.9 -0.3,-13.3 -0.6,-5 -3.3,-7.4 -8,-7.4 -4.8,0 -8.1,2.4 -10,7.3 -1.4,3.7 -2.1,9.2 -2.1,16.6 v 28.6 h 6.6 V 78 h -22.3 v -2.4 h 5.7 V 23.1 h -5.7 V 20.7 H 338 v 8.4 c 1.1,-3.3 3.1,-5.8 6,-7.5 2.8,-1.7 5.8,-2.6 8.9,-2.6 3.5,0 6.6,0.9 9.3,2.8 2.7,1.8 4.5,4.4 5.6,7.5 1.4,-3.3 3.6,-5.8 6.7,-7.7 3,-1.9 6,-2.7 9,-2.4 6.3,0.5 10.6,2.5 12.7,6.1 1.5,2.5 2.2,6.9 2.2,13.2 V 44 75.6 h 5.5 V 78 Z"
   id="path7" />
	<path
   class="st0"
   d="m 450.5,60.9 c 0,5.5 -2.1,10 -6.2,13.5 -4.1,3.5 -9.3,5.3 -15.6,5.3 -3.2,0 -6.6,-0.5 -10.2,-1.6 -3.6,-1.1 -6.2,-2.2 -7.8,-3.3 V 55.9 h 2.5 l 2.9,9.5 c 1.4,4.8 3.1,8 5,9.5 1.2,0.9 3.5,1.5 6.8,1.8 0.4,0.1 1.1,0.1 2.1,0.1 3.7,0 7,-0.9 9.8,-2.8 3.1,-2.1 4.7,-4.9 4.7,-8.4 0,-3.6 -2.2,-6.6 -6.5,-8.8 -0.5,-0.3 -4.7,-1.8 -12.4,-4.6 -4.8,-1.8 -8.2,-3.3 -10,-4.7 -4,-3 -5.9,-6.9 -5.9,-11.6 0,-5.6 2.6,-10 7.8,-13.2 4,-2.5 8.4,-3.7 13.2,-3.7 2.9,0 5.8,0.4 8.8,1.3 2.9,0.8 5.2,1.7 6.8,2.7 v 17.3 h -2.5 l -1.7,-6.2 c -1.3,-4.8 -2.8,-8.1 -4.4,-9.9 -1.6,-1.8 -4.1,-2.7 -7.5,-2.7 -3.7,0 -6.8,0.7 -9.2,2 -3.2,1.7 -4.8,4.2 -4.8,7.7 0,3 1.3,5.4 3.8,7.3 1.7,1.2 4.5,2.5 8.6,3.8 7.3,2.6 12.2,4.7 14.8,6.3 4.7,3.1 7.1,7.2 7.1,12.3 z"
   id="path8" />
	<path
   class="st0"
   d="m 489,66.9 c 0,2.9 -0.7,5.5 -2.2,7.7 -2.2,3.3 -5.6,4.9 -10.2,4.9 -5.7,0 -9.5,-1.8 -11.6,-5.5 -1.4,-2.5 -2.1,-6.6 -2.1,-12.3 0,-1 0,-1.9 0,-2.8 0,-0.9 0,-1.9 0,-2.8 v -33 H 456 v -2.4 h 6.9 V 8.4 h 9.5 v 12.3 h 13.2 v 2.4 h -13.2 v 41.3 c 0,3 0.3,5.3 0.8,6.8 1.1,3.2 3,4.7 5.7,4.7 2.5,0 4.4,-1 5.7,-3 1.3,-2 2,-4.7 2,-7.9 v -9.1 h 2.4 z"
   id="path9" />
	<path
   class="st0"
   d="m 539.7,56.5 -0.1,1.8 c 0,5.6 -1.9,10.6 -5.7,14.8 -3.8,4.2 -8.4,6.3 -14,6.3 -7,0 -12.9,-2.9 -17.5,-8.8 -4.6,-5.8 -6.9,-13.2 -6.9,-22.1 0,-8.2 2.3,-15.2 6.8,-21.1 4.5,-5.9 10.1,-8.8 16.8,-8.8 5.9,0 10.8,2.3 14.9,7 3.8,4.4 5.7,9.5 5.7,15.5 0,1 0,1.7 0,2.2 h -33 V 50 c 0,8 0.9,14.1 2.6,18.3 2.3,5.5 6.1,8.2 11.5,8.2 4.8,0 8.8,-2.1 12.1,-6.3 2.9,-3.8 4.4,-7.9 4.4,-12.3 v -1.6 h 2.4 z M 528.3,41 v -6.3 c 0,-3.7 -0.7,-6.8 -2.2,-9.3 -1.8,-2.9 -4.3,-4.4 -7.5,-4.4 -2.7,0 -5.1,1.3 -7.1,3.9 -2,2.6 -3.3,5.5 -3.8,8.9 l -1.1,7.2 c 0,0 21.7,0 21.7,0 z"
   id="path10" />
	<path
   class="st0"
   d="m 597.9,78 h -15.2 v -8.6 c -1.9,3.5 -3.7,6 -5.6,7.5 -2.5,2 -5.5,3 -9.1,3 -6.8,0 -12.3,-3.4 -16.6,-10 -3.9,-6.1 -5.8,-13.1 -5.8,-21.2 0,-8.3 2.3,-15.3 6.8,-21.1 4.5,-5.8 9.8,-8.7 15.8,-8.7 3.3,0 6.2,1.1 8.7,3.3 2.2,1.8 4.1,4.5 5.7,7.9 V 2.4 h -6.9 V 0 h 16.6 v 75.6 h 5.4 V 78 Z M 582.7,52.2 c 0,-8.7 -0.8,-15.5 -2.4,-20.2 -2.2,-6.4 -5.9,-9.7 -11.1,-9.7 -3.7,0 -6.5,1.9 -8.4,5.6 -2.5,4.6 -3.7,12.1 -3.7,22.5 0,7.7 0.7,13.5 2,17.5 2,6 5.6,9 10.7,9 4.8,0 8.3,-2.7 10.4,-8.2 1.7,-4.4 2.5,-9.8 2.5,-16.5 z"
   id="path11" />
</g>
<g
   id="g16"
   transform="translate(0,72)">
	<path
   class="st1"
   d="M 81.9,137.9 H 60.5 v -2.3 h 6.3 V 96.5 c 0,-4.4 -0.5,-7.5 -1.6,-9.3 -1.1,-1.8 -3.3,-2.7 -6.6,-2.7 -3.3,0 -5.9,1.9 -7.8,5.6 -1.9,3.7 -2.8,8.4 -2.8,14 v 31.5 h 5.8 v 2.3 H 32.3 v -2.3 h 6.2 v -30.9 c 0,-7.3 -0.1,-11.6 -0.3,-12.9 -0.6,-4.8 -3.1,-7.2 -7.6,-7.2 -4.6,0 -7.7,2.4 -9.5,7.1 -1.4,3.6 -2,8.9 -2,16.1 v 27.8 h 6.3 v 2.3 H 4.1 v -2.3 h 5.4 v -51 H 4.1 v -2.3 h 15 v 8.2 c 1.1,-3.2 3,-5.6 5.7,-7.3 2.7,-1.7 5.5,-2.5 8.5,-2.5 3.4,0 6.3,0.9 8.9,2.7 2.5,1.8 4.3,4.2 5.3,7.3 1.3,-3.2 3.5,-5.7 6.4,-7.5 2.9,-1.8 5.8,-2.6 8.6,-2.4 6,0.5 10.1,2.5 12.1,5.9 1.4,2.5 2.1,6.7 2.1,12.8 v 5.5 30.7 H 82 Z"
   id="path12" />
	<path
   class="st1"
   d="m 136.3,137.9 h -15.1 v -8.1 c -1.3,3 -3.1,5.3 -5.7,7 -2.5,1.7 -5.4,2.5 -8.7,2.5 -5.5,0 -9.4,-2 -11.7,-5.9 -1.8,-3.1 -2.8,-7.4 -2.8,-13 V 84.6 H 87 v -2.3 h 14.9 v 37.9 c 0,4.7 0.5,8.2 1.4,10.6 1.3,3.6 3.7,5.2 7.1,4.8 3.9,-0.3 6.8,-2.6 8.6,-6.9 1.4,-3.3 2.1,-7.6 2.1,-12.8 V 84.6 H 114 v -2.3 h 17 v 53.3 h 5.3 z"
   id="path13" />
	<path
   class="st1"
   d="m 186.7,121.3 c 0,5.3 -2,9.7 -5.9,13.1 -3.9,3.4 -8.9,5.1 -14.9,5.1 -3,0 -6.3,-0.5 -9.7,-1.5 -3.4,-1 -5.9,-2.1 -7.4,-3.2 v -18.3 h 2.4 l 2.8,9.2 c 1.3,4.7 2.9,7.8 4.7,9.2 1.2,0.9 3.3,1.5 6.5,1.8 0.4,0.1 1.1,0.1 2,0.1 3.6,0 6.7,-0.9 9.4,-2.7 3,-2.1 4.5,-4.8 4.5,-8.2 0,-3.5 -2.1,-6.4 -6.2,-8.6 -0.5,-0.3 -4.5,-1.8 -11.8,-4.5 -4.6,-1.7 -7.8,-3.2 -9.6,-4.6 -3.8,-2.9 -5.7,-6.7 -5.7,-11.3 0,-5.5 2.5,-9.7 7.4,-12.8 3.9,-2.4 8.1,-3.6 12.6,-3.6 2.8,0 5.6,0.4 8.4,1.2 2.8,0.8 5,1.7 6.5,2.6 v 16.8 h -2.4 L 178.7,95 c -1.3,-4.6 -2.6,-7.9 -4.2,-9.6 -1.5,-1.8 -3.9,-2.6 -7.2,-2.6 -3.5,0 -6.5,0.6 -8.8,1.9 -3,1.6 -4.5,4.1 -4.5,7.5 0,2.9 1.2,5.3 3.7,7.1 1.6,1.2 4.3,2.4 8.2,3.7 7,2.5 11.7,4.5 14.1,6.2 4.4,3.1 6.7,7.2 6.7,12.1 z"
   id="path14" />
	<path
   class="st1"
   d="m 216.2,137.9 h -20.8 v -2.3 h 5.8 v -51 h -5.4 V 82.3 H 211 v 53.3 h 5.2 z"
   id="path15" />
	<path
   class="st1"
   d="m 266.2,117.1 -0.4,2.8 c -0.9,7 -3.1,12 -6.7,15.2 -3,2.8 -7,4.1 -12,4.1 -6.8,0 -12.3,-3.1 -16.5,-9.4 -3.9,-5.7 -5.8,-12.5 -5.8,-20.3 0,-7.9 2.2,-14.7 6.5,-20.4 4.7,-6.2 10.6,-9.3 17.6,-9.3 2.9,0 5.6,0.2 8.2,0.7 2.6,0.5 5.3,1.5 7.9,3 V 103 h -2.4 l -1.3,-4.6 c -1.4,-5.7 -3,-9.9 -4.8,-12.4 -1.8,-2.6 -4.1,-3.8 -7,-3.8 -4.1,0 -7.3,1.9 -9.7,5.7 -2.9,4.6 -4.3,12.1 -4.3,22.5 0,9.9 1.3,16.8 3.9,20.7 2.4,3.5 5.8,5.3 10.2,5.3 3.6,0 6.6,-1.4 8.9,-4.3 2.4,-2.9 3.9,-6.5 4.5,-10.8 l 0.6,-4.1 h 2.6 z"
   id="path16" />
</g>
</svg>
